<?xml version="1.0" standalone="no"?>
<!DOCTYPE svg PUBLIC "-//W3C//DTD SVG 20010904//EN"
 "http://www.w3.org/TR/2001/REC-SVG-20010904/DTD/svg10.dtd">
<svg version="1.0" xmlns="http://www.w3.org/2000/svg"
 width="512.000000pt" height="512.000000pt" viewBox="0 0 512.000000 512.000000"
 preserveAspectRatio="xMidYMid meet">

<g transform="translate(0.000000,512.000000) scale(0.100000,-0.100000)"
fill="#DEDEDE" stroke="none">
<path d="M381 5100 c-91 -24 -149 -57 -221 -126 -72 -69 -115 -142 -140 -238
-20 -78 -20 -106 -20 -2176 0 -2070 0 -2098 20 -2176 25 -96 68 -169 140 -238
73 -70 131 -102 225 -126 77 -20 111 -20 2175 -20 2070 0 2098 0 2176 20 96
25 169 68 238 140 70 73 102 131 126 225 20 77 20 111 20 2175 0 2064 0 2098
-20 2175 -24 94 -56 152 -126 225 -69 72 -142 115 -238 140 -78 20 -105 20
-2180 19 -2045 0 -2103 -1 -2175 -19z m1156 -1571 c65 -17 145 -37 178 -44 33
-7 78 -22 100 -34 21 -12 48 -21 59 -21 11 0 28 -8 38 -17 11 -9 57 -35 102
-58 73 -35 96 -54 188 -150 94 -99 106 -117 118 -165 7 -32 25 -69 41 -88 16
-18 29 -43 29 -56 0 -13 6 -41 14 -62 7 -22 16 -101 20 -177 6 -132 5 -143
-24 -257 -16 -66 -30 -132 -30 -146 0 -14 -33 -89 -72 -166 -65 -126 -80 -147
-136 -195 -35 -29 -77 -60 -94 -69 -17 -9 -53 -38 -79 -64 -55 -56 -104 -75
-162 -66 -25 4 -57 1 -86 -8 -138 -44 -251 -58 -521 -63 -170 -2 -309 0 -387
8 -107 11 -134 10 -217 -5 -85 -15 -99 -15 -130 -2 -24 10 -37 23 -42 42 -10
37 18 58 98 74 119 23 162 63 156 146 -2 34 2 57 12 69 19 23 22 209 3 287
-12 52 -11 68 7 158 18 90 19 113 10 242 -6 79 -15 168 -20 198 -5 30 -12 138
-15 239 -4 167 -7 186 -25 206 -11 12 -20 33 -20 48 0 34 -24 50 -131 86 -66
22 -85 32 -87 49 -4 27 32 51 78 51 19 1 79 -2 132 -5 96 -6 367 18 413 37 11
4 97 8 192 8 161 1 179 -1 290 -30z m1583 19 c30 -1 78 0 105 2 58 4 210 4
309 1 39 -1 125 -16 197 -35 109 -28 140 -41 217 -90 100 -63 155 -117 182
-180 10 -22 25 -93 34 -156 14 -115 14 -115 -8 -155 -13 -22 -26 -60 -30 -84
-4 -24 -14 -56 -23 -70 -20 -33 -130 -122 -203 -164 -66 -38 -77 -72 -38 -116
31 -33 128 -170 203 -286 33 -49 97 -128 144 -175 49 -48 95 -105 107 -131 18
-38 39 -57 126 -117 58 -39 129 -82 159 -95 65 -29 102 -66 97 -98 -5 -40 -41
-50 -168 -46 -183 6 -297 24 -354 55 -113 61 -255 228 -324 382 -16 36 -48 87
-71 113 -22 27 -41 52 -41 57 0 4 -26 37 -58 72 -32 36 -69 86 -81 112 -28 58
-118 125 -208 155 -71 24 -76 24 -123 11 -74 -22 -71 -4 -76 -341 -3 -204 -1
-312 6 -329 10 -25 92 -81 135 -94 11 -3 62 -10 113 -15 109 -12 142 -28 142
-70 0 -36 -44 -76 -101 -91 -34 -9 -52 -8 -108 9 -169 50 -452 80 -487 50 -7
-5 -66 -8 -140 -7 l-129 3 -3 26 c-5 44 40 69 195 109 43 11 46 15 58 83 3 20
10 37 15 37 21 0 32 88 27 214 -3 80 0 171 9 238 11 94 11 122 -1 191 -19 105
-19 146 0 167 13 14 14 26 6 62 -7 29 -7 57 -1 78 14 47 13 267 0 380 -11 91
-13 97 -52 137 -47 48 -109 84 -190 109 -61 18 -74 39 -42 64 36 31 107 40
264 34 85 -3 180 -6 210 -6z"/>
<path d="M1145 3480 c-180 -20 -191 -32 -189 -210 2 -111 9 -398 16 -595 2
-38 -1 -86 -6 -105 -11 -44 9 -306 29 -380 10 -37 12 -77 8 -125 -5 -60 -2
-77 16 -113 64 -126 239 -231 386 -232 85 0 144 19 273 85 140 71 265 181 283
248 6 23 24 67 40 99 16 32 29 66 29 76 0 10 16 55 35 99 19 44 36 96 37 114
3 48 -22 289 -33 317 -5 13 -9 47 -9 76 0 36 -5 58 -15 66 -8 7 -22 38 -31 69
-24 91 -37 111 -138 221 -134 145 -159 166 -231 190 -35 12 -83 34 -108 50
-24 17 -67 34 -95 40 -77 14 -219 19 -297 10z"/>
<path d="M3310 3409 c-61 -14 -80 -40 -80 -112 0 -65 -37 -265 -52 -284 -7 -9
-5 -24 6 -46 18 -40 19 -127 1 -208 -16 -70 -3 -115 43 -145 38 -26 134 -43
140 -25 9 26 118 65 234 85 64 11 127 72 177 168 49 97 61 159 39 215 -8 21
-13 56 -11 78 4 35 -1 50 -36 103 -52 78 -116 127 -200 153 -79 24 -198 32
-261 18z"/>
</g>
</svg>
